PathFileType	4	(X/Y/Z)	Patient4_TMGait_0pt7_01_right_40.trc.trc
DataRate	CameraRate	NumFrames	NumMarkers	Units	OrigDataRate	OrigDataStartFrame	OrigNumFrames
86.419753086420	86.419753086420	6	33	mm	86.419753086420	106	       141
Frame#	Time	Sacral			L.Shoulder			Chest			R.Shoulder			Neck			R.ASIS			L.ASIS			R.Thigh.Superior			R.Thigh.Lateral			R.Thigh.Inferior			R.Patella			L.Thigh.Superior			L.Thigh.Lateral			L.Thigh.Inferior			L.Patella			L.Shank.Superior			L.Shank.Lateral			L.Shank.Inferior			R.Shank.Superior			R.Shank.Lateral			R.Shank.Inferior			R.Heel			R.Midfoot.Superior			R.Midfoot.Lateral			R.Toe			L.Heel			L.Midfoot.Lateral			L.Midfoot.Superior			L.Toe			L.Elbow			L.Wrist			R.Elbow			R.Wrist			
		X1	Y1	Z1	X2	Y2	Z2	X3	Y3	Z3	X4	Y4	Z4	X5	Y5	Z5	X6	Y6	Z6	X7	Y7	Z7	X8	Y8	Z8	X9	Y9	Z9	X10	Y10	Z10	X11	Y11	Z11	X12	Y12	Z12	X13	Y13	Z13	X14	Y14	Z14	X15	Y15	Z15	X16	Y16	Z16	X17	Y17	Z17	X18	Y18	Z18	X19	Y19	Z19	X20	Y20	Z20	X21	Y21	Z21	X22	Y22	Z22	X23	Y23	Z23	X24	Y24	Z24	X25	Y25	Z25	X26	Y26	Z26	X27	Y27	Z27	X28	Y28	Z28	X29	Y29	Z29	X30	Y30	Z30	X31	Y31	Z31	X32	Y32	Z32	X33	Y33	Z33	

106	46.945000000000	833.644701314689	1016.441874423649	398.913119717094	1048.982697022231	1432.842954049093	218.837275026714	1138.102297370503	1357.713258176844	386.790437675002	1050.182334111509	1440.709610971372	554.755588861814	1047.997239069921	1496.511600549406	373.067395014544	1051.578925852241	952.576089146667	529.235093585136	1055.152503747854	961.593297227568	254.613859607769	1146.662358089097	798.194856585156	499.879869052997	1120.121723471226	675.659815388547	575.946195636896	1212.199971664946	644.300952049374	496.381459291187	1245.861431368870	537.940923143939	520.800093610708	1093.375660334412	748.598911847385	287.710176296567	1000.594071392232	637.902738160658	225.928753475895	1076.482274896583	556.255172349004	294.064580146096	1071.862541250487	487.594094800143	305.164993993432	1045.228287708832	416.928906306596	295.546321706513	955.606064437192	303.623647262208	243.345145396718	1000.579467884128	192.540483236301	317.805676394615	1186.380053199295	452.093515277739	528.709352622681	1078.878211703980	384.678602817139	588.955576785140	1091.595064736845	275.143819010299	541.134929326764	912.314928600667	169.397302833664	512.557345729179	1089.801072265287	148.265270272903	556.762914992062	981.852925885562	124.192735759356	586.642466678633	1174.808412729470	50.676425144456	582.934833375418	869.979876529539	38.184351210136	359.529574152661	944.142325760915	35.335963254618	278.776927498288	1026.863880420237	96.381965826501	306.295661582421	1156.034244601754	44.364515223619	277.599790907842	1023.748804584772	1089.709137889320	84.463136201240	1218.334602740359	915.674250579453	96.561032014686	998.247866153102	1093.471392249468	672.576061646603	1096.701371466761	851.314902762186	680.916455780325	
107	46.956571428571	832.680771507056	1016.404570660964	397.680799027685	1049.708042470090	1433.157710411903	219.327924851954	1137.551732677390	1357.589362972719	387.776819418995	1048.534281296885	1440.292985521695	555.270598321582	1047.518210113066	1496.513901189697	373.636143707313	1049.907133369360	952.808644677147	529.445260102522	1054.906604936018	961.497709572409	254.771283209670	1145.711510662923	799.645703956334	500.513995680899	1119.730520914214	676.960589497612	576.775922414902	1212.032605490083	646.224366160624	497.448239145472	1247.469496224900	541.971541522521	522.188771860966	1090.892138409631	747.535168619436	288.463512237752	997.163822423482	637.717473264178	225.776130853541	1071.489406871240	555.229711935770	294.352375672955	1065.971930219084	486.772654649504	305.461697412151	1039.154357238225	416.330611798769	295.697845399351	949.121075927022	303.489733274380	243.205402508734	993.087798425097	192.196270001708	317.914554837927	1192.265863272403	454.469927251643	530.078097715293	1089.286276417283	380.868027837103	590.731258843433	1108.398582071586	272.277627038696	542.794359552907	935.887071753110	155.888741808549	514.552780616590	1114.380900071217	145.500407686172	558.584150998849	1008.139712784000	114.932477078141	588.490494564030	1205.056924323144	53.228649165090	584.591435177545	861.843146601791	38.206906886316	359.466755017590	936.002112632700	35.324078933967	278.766311650075	1018.781662338013	96.305368141492	306.349564410373	1147.934955017606	44.152582169294	277.626545624958	1030.139284885001	1090.911439856752	82.703786109846	1233.274176130605	927.684299388424	96.939099644901	991.768829868326	1093.606492773454	672.514171338174	1072.398399645581	844.739393979239	687.396938759921	
108	46.968142857143	831.858684160826	1016.321691744195	396.597005320133	1050.437561505915	1433.391828584314	219.941748145765	1137.091443575346	1357.384703972155	388.832268179089	1047.078240046890	1439.850455184518	555.869318573187	1047.113108571607	1496.445921512943	374.300602494764	1048.375563564001	952.845690824502	529.765603119802	1054.739158500800	961.319955568030	255.056749943780	1144.483457335709	800.472777221608	501.338381307285	1118.596867563314	677.620331276525	577.730364478224	1211.175049252166	647.364170926647	498.775330082198	1248.117212364243	545.361480112851	523.738498575304	1088.396433747425	746.439008945101	289.278873265863	993.630910640361	637.552193072076	225.661174459378	1066.327269738075	554.195268760008	294.616450099290	1059.906344894312	485.987264116198	305.702504885073	1032.928415487017	415.780901467626	295.806888040151	942.502210212402	303.374439103522	243.029398723594	985.571726760726	191.895576854594	317.969156045143	1197.408852406077	456.491344721075	531.552697285335	1099.432117507911	376.813509801426	592.600475058497	1125.114187077499	269.607827906991	544.526512282571	960.329457006868	142.672871884861	516.531828226977	1139.105983936911	143.352717400272	560.397758047770	1035.068754567834	106.230813940219	590.333521740426	1235.266648922767	56.975468528155	586.242607712771	853.715496756514	38.243210247924	359.396651014550	927.862235465426	35.309895506466	278.753937597366	1010.701295135491	96.226158321116	306.383836170093	1139.832547141094	43.925749956353	277.656935208284	1036.473446946942	1092.163693238406	81.156025166179	1247.410638642738	940.108055112795	97.684317582870	985.128475277763	1093.974332034880	672.578501365853	1048.890921909899	840.254033991846	693.135569855400	
109	46.979714285714	831.200929893168	1016.172710227180	395.681129744604	1051.151863153883	1433.527270801902	220.674028929947	1136.720033155237	1357.094602045269	389.947123667642	1045.826187032126	1439.385668553297	556.549150605848	1046.786686461380	1496.294520007707	375.055296056250	1047.021394154234	952.683705213371	530.200505810402	1054.675724255660	961.068902346129	255.465825737872	1142.998199895211	800.649920565317	502.335660209725	1116.764285929153	677.610920150306	578.794309016093	1209.679603413620	647.706383692596	500.328356480043	1247.855149161134	548.062384575324	525.387483609782	1085.892253058292	745.313965754247	290.119153987618	989.976776472726	637.418167251415	225.575894967716	1060.995455088621	553.162830370209	294.830005440883	1053.672874516189	485.244572690324	305.856261140866	1026.547710173500	415.290851837989	295.851962281617	935.732138412698	303.290241224123	242.809921299174	978.022865152614	191.644826810388	317.957897273078	1201.800465271932	458.135541351665	533.096120073622	1109.231050852305	372.598471053463	594.508468393397	1141.559996343861	267.220027373730	546.295736006433	985.386777146710	130.000639689333	518.454849400720	1163.690152055446	141.936868122818	562.185685773517	1062.335611252997	98.281827777385	592.133956231577	1265.051530462847	61.963650150801	587.869242743374	845.592846515874	38.298518671928	359.321373617458	919.722460572199	35.294049161321	278.739260232306	1002.623617899363	96.145307415289	306.391506151596	1131.726195951763	43.684389601724	277.688666152322	1042.733636972082	1093.426713160251	79.834641341353	1260.709586509329	952.835046237150	98.783480125040	978.254032180538	1094.638310715983	672.839817703399	1026.491782311424	837.680886812269	698.065910254687	
110	46.991285714286	830.732625230856	1015.928033967699	394.956818084240	1051.827176996292	1433.543959206849	221.517002375477	1136.430156792010	1356.716211213684	391.111520643910	1044.777613731658	1438.899870386937	557.304342638482	1046.533301692986	1496.045785329889	375.891241926043	1045.886246289155	952.321109655906	530.757136626255	1054.749600045844	960.764467078188	255.990334793840	1141.291418241967	800.163993833793	503.493355664291	1114.309727868028	676.924711127733	579.952847450984	1207.621552024406	647.256605400170	502.062737882027	1246.759374951247	550.040551594588	527.069803748286	1083.386525766882	744.163379326375	290.946247044377	986.190330917104	637.324429007315	225.511718654276	1055.506503571636	552.144126484591	294.968167836276	1047.291395238021	484.548035449343	305.894622993534	1020.018110512635	414.868219446706	295.814797028549	928.799738512738	303.249987237233	242.544137361413	970.433525952487	191.448179809006	317.872401416290	1205.443613937576	459.376393315380	534.671535895838	1118.573887838300	368.294494771049	596.390952507357	1157.521843860636	265.160163191206	548.061650203699	1010.711079248888	118.081912643046	520.265367812579	1187.791745759194	141.297211943437	563.931434101448	1089.545894196651	91.222280049792	593.846821893754	1293.974979692599	68.129469804991	589.475822174499	837.471043693498	38.377826283476	359.243514362502	911.582393349452	35.277749478746	278.721828587010	994.549491252528	96.064682330742	306.366495586966	1123.615012897506	43.430937032517	277.719246186820	1048.897979148583	1094.659520412908	78.750836707968	1273.144125757562	965.745857318695	100.221186536175	971.104905740425	1095.652665350204	673.361956545561	1005.431570316579	836.773796557668	702.169261377151	
111	47.002857142857	830.477911087398	1015.551251434916	394.451889592460	1052.435046775254	1433.420346022901	222.460664462149	1136.208094514085	1356.248708405057	392.316462830066	1043.918080523555	1438.391239114689	558.126879961017	1046.335588260039	1495.685605354512	376.796300280001	1045.013861943393	951.756283655512	531.443912084685	1054.992697925360	960.432225657404	256.620382878857	1139.416410032073	799.017863801858	504.802984539625	1111.343802728131	675.575157521366	581.190185374047	1205.099645571730	646.039790802437	503.926894534229	1244.930026429077	551.276474843017	528.720815631840	1080.890063097591	742.989053218715	291.723444740177	982.270565012119	637.276380198682	225.461364985555	1049.886848149559	551.149864049003	295.010747878114	1040.795189763802	483.896937751601	305.795737695421	1013.355674246332	414.515714178603	295.683155169021	921.703067799651	303.265520797323	242.234955519984	962.799523419235	191.306901782717	317.708605653976	1208.352476511731	460.182524474148	536.242949096462	1127.330152244122	363.955987184369	598.176785360050	1172.758021656062	263.427773817889	549.778844665254	1035.862578126411	107.075469657024	521.889834692861	1211.019215816675	141.396055726851	565.615914096068	1116.219203033694	85.120394550476	595.419178170826	1321.559947122527	75.286988696165	591.085063900487	829.347071598927	38.484935558694	359.165426505073	903.441630071720	35.262678182244	278.701394853670	986.479368443577	95.986501464266	306.304816515745	1115.498325197951	43.169691883732	277.746075833437	1054.942377898871	1095.821578123211	77.911741491690	1284.695672607094	978.714245844912	101.979593269646	963.675357977855	1097.055450921120	674.191575308268	985.847578918871	837.245842561210	705.473654928907	
